<svg width="80" height="80" viewBox="0 0 80 80" fill="none" xmlns="http://www.w3.org/2000/svg">
<g clip-path="url(#clip0_24_100)">
<path d="M24.6875 62.4553L22.4554 64.6875C22.1578 64.9851 21.8155 65.1339 21.4286 65.1339C21.0417 65.1339 20.6994 64.9851 20.4018 64.6875L-0.401784 43.8839C-0.699404 43.5863 -0.848213 43.244 -0.848213 42.8571C-0.848213 42.4702 -0.699404 42.128 -0.401784 41.8303L20.4018 21.0268C20.6994 20.7292 21.0417 20.5804 21.4286 20.5804C21.8155 20.5804 22.1578 20.7292 22.4554 21.0268L24.6875 23.2589C24.9851 23.5565 25.1339 23.8988 25.1339 24.2857C25.1339 24.6726 24.9851 25.0149 24.6875 25.3125L7.14286 42.8571L24.6875 60.4018C24.9851 60.6994 25.1339 61.0416 25.1339 61.4285C25.1339 61.8154 24.9851 62.1577 24.6875 62.4553ZM51.0715 14.8214L34.4197 72.4553C34.3006 72.8422 34.07 73.1324 33.7277 73.3259C33.3854 73.5193 33.0357 73.5565 32.6786 73.4375L29.9107 72.6785C29.5238 72.5595 29.2336 72.3288 29.0402 71.9866C28.8467 71.6443 28.8095 71.2797 28.9286 70.8928L45.5804 13.2589C45.6994 12.872 45.9301 12.5819 46.2723 12.3884C46.6146 12.195 46.9643 12.1578 47.3215 12.2768L50.0893 13.0357C50.4762 13.1548 50.7664 13.3854 50.9599 13.7277C51.1533 14.07 51.1905 14.4345 51.0715 14.8214ZM80.4018 43.8839L59.5982 64.6875C59.3006 64.9851 58.9584 65.1339 58.5715 65.1339C58.1846 65.1339 57.8423 64.9851 57.5447 64.6875L55.3125 62.4553C55.0149 62.1577 54.8661 61.8154 54.8661 61.4285C54.8661 61.0416 55.0149 60.6994 55.3125 60.4018L72.8572 42.8571L55.3125 25.3125C55.0149 25.0149 54.8661 24.6726 54.8661 24.2857C54.8661 23.8988 55.0149 23.5565 55.3125 23.2589L57.5447 21.0268C57.8423 20.7292 58.1846 20.5804 58.5715 20.5804C58.9584 20.5804 59.3006 20.7292 59.5982 21.0268L80.4018 41.8303C80.6994 42.128 80.8483 42.4702 80.8483 42.8571C80.8483 43.244 80.6994 43.5863 80.4018 43.8839Z" fill="#171E26"/>
</g>
<defs>
<clipPath id="clip0_24_100">
<rect width="80" height="80" fill="white"/>
</clipPath>
</defs>
</svg>
