<svg width="80" height="80" viewBox="0 0 80 80" fill="none" xmlns="http://www.w3.org/2000/svg">
<path d="M69.5 17.1667L52.8333 0.5C52.5256 0.185976 52.1063 0.00626175 51.6667 0L16.6667 0C14.8986 0 13.2029 0.702379 11.9526 1.95262C10.7024 3.20286 10 4.89856 10 6.66667V73.3333C10 75.1014 10.7024 76.7971 11.9526 78.0474C13.2029 79.2976 14.8986 80 16.6667 80H63.3333C65.1014 80 66.7971 79.2976 68.0474 78.0474C69.2976 76.7971 70 75.1014 70 73.3333V18.3333C69.9937 17.8937 69.814 17.4744 69.5 17.1667ZM41.6667 60H25C24.558 60 24.134 59.8244 23.8215 59.5118C23.5089 59.1993 23.3333 58.7754 23.3333 58.3333C23.3333 57.8913 23.5089 57.4674 23.8215 57.1548C24.134 56.8423 24.558 56.6667 25 56.6667H41.6667C42.1087 56.6667 42.5326 56.8423 42.8452 57.1548C43.1577 57.4674 43.3333 57.8913 43.3333 58.3333C43.3333 58.7754 43.1577 59.1993 42.8452 59.5118C42.5326 59.8244 42.1087 60 41.6667 60ZM55 53.3333H25C24.558 53.3333 24.134 53.1577 23.8215 52.8452C23.5089 52.5326 23.3333 52.1087 23.3333 51.6667C23.3333 51.2246 23.5089 50.8007 23.8215 50.4882C24.134 50.1756 24.558 50 25 50H55C55.442 50 55.866 50.1756 56.1785 50.4882C56.4911 50.8007 56.6667 51.2246 56.6667 51.6667C56.6667 52.1087 56.4911 52.5326 56.1785 52.8452C55.866 53.1577 55.442 53.3333 55 53.3333ZM55 46.6667H25C24.558 46.6667 24.134 46.4911 23.8215 46.1785C23.5089 45.866 23.3333 45.442 23.3333 45C23.3333 44.558 23.5089 44.134 23.8215 43.8215C24.134 43.5089 24.558 43.3333 25 43.3333H55C55.442 43.3333 55.866 43.5089 56.1785 43.8215C56.4911 44.134 56.6667 44.558 56.6667 45C56.6667 45.442 56.4911 45.866 56.1785 46.1785C55.866 46.4911 55.442 46.6667 55 46.6667ZM55 40H25C24.558 40 24.134 39.8244 23.8215 39.5118C23.5089 39.1993 23.3333 38.7754 23.3333 38.3333C23.3333 37.8913 23.5089 37.4674 23.8215 37.1548C24.134 36.8423 24.558 36.6667 25 36.6667H55C55.442 36.6667 55.866 36.8423 56.1785 37.1548C56.4911 37.4674 56.6667 37.8913 56.6667 38.3333C56.6667 38.7754 56.4911 39.1993 56.1785 39.5118C55.866 39.8244 55.442 40 55 40ZM56.6667 16.6667C55.7826 16.6667 54.9348 16.3155 54.3096 15.6904C53.6845 15.0652 53.3333 14.2174 53.3333 13.3333V5.7L64.3 16.6667H56.6667Z" fill="#171E26"/>
</svg>
