<svg width="80" height="80" viewBox="0 0 80 80" fill="none" xmlns="http://www.w3.org/2000/svg">
<path d="M16 32V24C16 17.6348 18.5286 11.5303 23.0294 7.02944C27.5303 2.52856 33.6348 0 40 0C46.3652 0 52.4697 2.52856 56.9705 7.02944C61.4714 11.5303 64 17.6348 64 24V32H68C70.1217 32 72.1565 32.8429 73.6568 34.3431C75.1571 35.8434 76 37.8783 76 40V72C76 74.1217 75.1571 76.1566 73.6568 77.6569C72.1565 79.1571 70.1217 80 68 80H12C9.87827 80 7.84344 79.1571 6.34314 77.6569C4.84285 76.1566 4 74.1217 4 72V40C4 35.6 7.6 32 12 32H16ZM36 58.92V68H44V58.92C45.5251 58.0395 46.7171 56.6803 47.391 55.0533C48.065 53.4262 48.1832 51.6223 47.7274 49.9212C47.2716 48.2202 46.2672 46.717 44.8701 45.645C43.4729 44.5729 41.7611 43.9918 40 43.9918C38.2389 43.9918 36.5271 44.5729 35.1299 45.645C33.7327 46.717 32.7284 48.2202 32.2726 49.9212C31.8168 51.6223 31.935 53.4262 32.609 55.0533C33.2829 56.6803 34.4749 58.0395 36 58.92ZM28 24V32H52V24C52 20.8174 50.7357 17.7652 48.4853 15.5147C46.2348 13.2643 43.1826 12 40 12C36.8174 12 33.7651 13.2643 31.5147 15.5147C29.2643 17.7652 28 20.8174 28 24Z" fill="#171E26"/>
</svg>
