<svg width="180" height="68" viewBox="0 0 180 68" fill="none" xmlns="http://www.w3.org/2000/svg">
<g clip-path="url(#clip0_66_12)">
<path d="M92.9305 22.2066L101.494 21.6515C101.69 23.0557 102.048 24.1007 102.634 24.8519C103.578 26.0275 104.881 26.6153 106.606 26.6153C107.876 26.6153 108.886 26.3214 109.569 25.7009C110.221 25.2111 110.611 24.4273 110.611 23.6109C110.611 22.8271 110.253 22.076 109.635 21.5862C108.983 20.9983 107.453 20.4105 105.043 19.888C101.103 19.0063 98.2706 17.8306 96.61 16.3284C94.9493 14.9242 94.0051 12.8668 94.0702 10.6788C94.0702 9.17656 94.526 7.67434 95.3726 6.43338C96.3495 5.02914 97.6845 3.9188 99.28 3.29832C101.006 2.54722 103.415 2.15533 106.444 2.15533C110.156 2.15533 112.988 2.84113 114.942 4.24537C116.896 5.61696 118.068 7.83763 118.426 10.8747L109.96 11.3646C109.732 10.0583 109.276 9.11125 108.527 8.49076C107.779 7.87028 106.802 7.57637 105.532 7.57637C104.49 7.57637 103.708 7.80497 103.187 8.22951C102.699 8.62139 102.373 9.20922 102.406 9.86235C102.406 10.3522 102.666 10.8094 103.057 11.1033C103.48 11.4952 104.49 11.8544 106.085 12.181C110.025 13.0301 112.826 13.8791 114.551 14.7609C116.277 15.6426 117.514 16.7203 118.263 17.9939C119.045 19.3002 119.436 20.8024 119.403 22.3373C119.403 24.1661 118.882 25.9948 117.84 27.5297C116.766 29.1299 115.268 30.3709 113.509 31.122C111.653 31.9384 109.309 32.3629 106.509 32.3629C101.559 32.3629 98.1404 31.4159 96.2192 29.4891C94.2981 27.5624 93.1585 25.1458 92.9305 22.2066ZM2.05137 31.8731V2.67784H17.0622C19.83 2.67784 21.979 2.90644 23.4443 3.39629C24.877 3.85349 26.1469 4.80054 26.9935 6.07416C27.9378 7.4784 28.3936 9.11124 28.3611 10.8094C28.4588 13.6832 26.9935 16.4264 24.4862 17.8633C23.5094 18.4184 22.4349 18.8103 21.3278 19.0063C22.1418 19.2349 22.9559 19.6268 23.6722 20.084C24.2258 20.5411 24.6816 21.0637 25.1049 21.6188C25.5933 22.174 26.0166 22.7945 26.3748 23.4476L30.7381 31.9057H20.5137L15.6946 22.9251C15.076 21.7821 14.555 21.031 14.0666 20.6718C13.4153 20.2146 12.6339 19.986 11.8524 19.986H11.0709V31.8404H2.05137V31.8731ZM11.0709 14.4996H14.8806C15.6946 14.4343 16.4761 14.3037 17.2576 14.1077C17.8437 14.0098 18.3647 13.6832 18.7229 13.1934C19.602 12.0177 19.4718 10.3522 18.3973 9.33984C17.8111 8.84999 16.6715 8.58874 15.0434 8.58874H11.0709V14.4996ZM0 56.8882L8.56368 56.3331C8.75904 57.7373 9.11722 58.7823 9.70333 59.5334C10.6151 60.7091 11.9501 61.3296 13.6758 61.3296C14.9457 61.3296 15.9551 61.0356 16.6389 60.4152C17.2902 59.8927 17.6809 59.1416 17.6809 58.3251C17.6809 57.5414 17.3227 56.7903 16.7041 56.3004C16.0528 55.7126 14.5224 55.1248 12.0803 54.6022C8.14038 53.7205 5.30753 52.5449 3.64689 51.0426C1.98625 49.6384 1.04197 47.581 1.10709 45.393C1.10709 43.8908 1.56295 42.3886 2.40955 41.1476C3.3864 39.7434 4.72142 38.633 6.31693 38.0126C8.04269 37.2615 10.4522 36.8696 13.4805 36.8696C17.1925 36.8696 20.0253 37.5554 21.979 38.9596C23.9327 40.3639 25.0724 42.5519 25.4305 45.589L16.9645 46.0788C16.7366 44.7725 16.2808 43.8255 15.5318 43.205C14.8155 42.5845 13.8061 42.2906 12.5362 42.3233C11.4942 42.3233 10.7127 42.5519 10.1918 43.0091C9.67077 43.4009 9.37771 43.9888 9.41027 44.6419C9.41027 45.1318 9.67077 45.589 10.0615 45.8829C10.4848 46.2747 11.4942 46.634 13.0897 46.9605C17.0297 47.8096 19.83 48.6587 21.5557 49.5404C23.2815 50.4222 24.5188 51.4998 25.2677 52.7735C26.0492 54.0797 26.4399 55.582 26.4399 57.0842C26.4399 58.913 25.8864 60.7091 24.877 62.244C23.8025 63.8441 22.3046 65.0851 20.5463 65.8362C18.6903 66.6526 16.3459 67.0772 13.5456 67.0772C8.59624 67.0772 5.17728 66.1301 3.25615 64.2034C1.33502 62.244 0.260492 59.8273 0 56.8882Z" fill="#171E26"/>
<path d="M43.3068 54.6022L51.1867 56.9862C50.7634 58.9783 49.8842 60.8724 48.6795 62.5379C47.5724 64.0074 46.1071 65.1504 44.4465 65.9015C42.7533 66.6526 40.6042 67.0445 37.9993 67.0445C34.8408 67.0445 32.2359 66.5873 30.2496 65.6729C28.2308 64.7585 26.5051 63.1257 25.0398 60.807C23.5745 58.4884 22.8582 55.5166 22.8582 51.8917C22.8582 47.0585 24.1281 43.3356 26.7004 40.7557C29.2728 38.1758 32.8871 36.8696 37.576 36.8696C41.2554 36.8696 44.1208 37.6207 46.2373 39.0902C48.3213 40.5924 49.8842 42.8784 50.9262 45.9482L42.9812 47.7116C42.7858 47.0259 42.4928 46.3401 42.102 45.7522C41.6136 45.0664 40.9949 44.5439 40.246 44.152C39.4971 43.7602 38.6505 43.5969 37.8039 43.5969C35.7525 43.5969 34.1896 44.4133 33.1151 46.0788C32.301 47.2871 31.8777 49.2139 31.8777 51.8264C31.8777 55.0594 32.3661 57.2801 33.343 58.4884C34.3198 59.6967 35.6874 60.2845 37.4783 60.2845C39.2041 60.2845 40.5065 59.7947 41.3857 58.8476C42.2648 57.8353 42.9161 56.431 43.3068 54.6022ZM61.7041 37.3594H70.691V47.581H80.5246V37.3594H89.5767V66.5547H80.5246V54.7329H70.691V66.5547H61.7041V37.3594Z" fill="#171E26"/>
<path d="M88.3394 51.957C88.3394 47.1891 89.6744 43.4663 92.3119 40.821C94.9494 38.1758 98.6614 36.8369 103.383 36.8369C108.234 36.8369 111.946 38.1432 114.584 40.7557C117.221 43.3683 118.524 47.0259 118.524 51.7284C118.524 55.1574 117.938 57.9332 116.798 60.1213C115.691 62.2766 113.965 64.0401 111.849 65.2157C109.667 66.424 106.965 67.0445 103.741 67.0445C100.452 67.0445 97.7496 66.522 95.6006 65.477C93.3864 64.3666 91.563 62.6358 90.3582 60.5131C89.0232 58.2272 88.3394 55.386 88.3394 51.957ZM97.3263 51.9897C97.3263 54.9288 97.8799 57.0515 98.9544 58.3578C100.029 59.6314 101.527 60.2845 103.415 60.2845C105.336 60.2845 106.834 59.6641 107.909 58.3904C108.983 57.1168 109.504 54.8635 109.504 51.5978C109.504 48.8546 108.951 46.8299 107.844 45.589C106.737 44.3153 105.239 43.6949 103.35 43.6949C101.69 43.6295 100.094 44.348 98.987 45.6216C97.8799 46.8952 97.3263 49.0179 97.3263 51.9897ZM127.739 51.957C127.739 47.1891 129.074 43.4663 131.711 40.821C134.349 38.1758 138.061 36.8369 142.782 36.8369C147.634 36.8369 151.378 38.1432 153.983 40.7557C156.588 43.3683 157.923 47.0259 157.923 51.7284C157.923 55.1574 157.337 57.9332 156.198 60.1213C155.09 62.2766 153.365 64.0401 151.248 65.2157C149.067 66.424 146.364 67.0445 143.14 67.0445C139.852 67.0445 137.149 66.522 135 65.477C132.786 64.3666 130.962 62.6358 129.758 60.5131C128.423 58.2272 127.739 55.386 127.739 51.957ZM136.726 51.9897C136.726 54.9288 137.279 57.0515 138.354 58.3578C139.428 59.6314 140.926 60.2845 142.815 60.2845C144.736 60.2845 146.234 59.6641 147.308 58.3904C148.383 57.1168 148.904 54.8635 148.904 51.5978C148.904 48.8546 148.35 46.8299 147.243 45.589C146.136 44.3153 144.638 43.6949 142.75 43.6949C141.089 43.6295 139.461 44.348 138.386 45.6216C137.279 46.8952 136.726 49.0179 136.726 51.9897Z" fill="#171E26"/>
<path d="M156.979 37.3594H165.966V59.3702H180V66.5547H156.946V37.3594H156.979Z" fill="#171E26"/>
<path d="M147.073 35.6745C156.121 28.8362 158.911 17.2441 153.305 9.78289C147.699 2.32166 135.819 1.81672 126.771 8.65507C117.723 15.4934 114.933 27.0855 120.54 34.5467C126.146 42.008 138.025 42.5129 147.073 35.6745Z" fill="white"/>
<mask id="mask0_66_12" style="mask-type:luminance" maskUnits="userSpaceOnUse" x="117" y="3" width="40" height="38">
<path d="M147.073 35.6746C156.121 28.8363 158.911 17.2442 153.305 9.78295C147.699 2.32172 135.819 1.81678 126.771 8.65513C117.723 15.4935 114.933 27.0856 120.54 34.5468C126.146 42.008 138.025 42.513 147.073 35.6746Z" fill="white"/>
</mask>
<g mask="url(#mask0_66_12)">
<path d="M97.4647 18.4644L144.221 -16.8733L176.574 26.1858L129.818 61.5234L97.4647 18.4644Z" fill="white"/>
<mask id="mask1_66_12" style="mask-type:luminance" maskUnits="userSpaceOnUse" x="97" y="-17" width="80" height="79">
<path d="M97.4647 18.4644L144.221 -16.8733L176.574 26.1858L129.818 61.5234L97.4647 18.4644Z" fill="white"/>
</mask>
<g mask="url(#mask1_66_12)">
<path d="M147.073 35.6746C156.121 28.8363 158.911 17.2442 153.305 9.78295C147.699 2.32172 135.819 1.81678 126.771 8.65513C117.723 15.4935 114.933 27.0856 120.54 34.5468C126.146 42.008 138.025 42.513 147.073 35.6746Z" fill="white"/>
<mask id="mask2_66_12" style="mask-type:luminance" maskUnits="userSpaceOnUse" x="117" y="3" width="40" height="38">
<path d="M147.073 35.6746C156.121 28.8363 158.911 17.2442 153.305 9.78295C147.699 2.32172 135.819 1.81678 126.771 8.65513C117.723 15.4935 114.933 27.0856 120.54 34.5468C126.146 42.008 138.025 42.513 147.073 35.6746Z" fill="white"/>
</mask>
<g mask="url(#mask2_66_12)">
<path d="M110.485 21.3396L143.225 -3.40402L163.546 23.6419L130.806 48.3855L110.485 21.3396Z" fill="white"/>
<mask id="mask3_66_12" style="mask-type:luminance" maskUnits="userSpaceOnUse" x="110" y="-4" width="54" height="53">
<path d="M110.485 21.3396L143.225 -3.40402L163.546 23.6419L130.806 48.3855L110.485 21.3396Z" fill="white"/>
</mask>
<g mask="url(#mask3_66_12)">
<path d="M147.073 35.6746C156.121 28.8363 158.911 17.2442 153.305 9.78295C147.699 2.32172 135.819 1.81678 126.771 8.65513C117.723 15.4935 114.933 27.0856 120.54 34.5468C126.146 42.008 138.025 42.513 147.073 35.6746Z" fill="white" stroke="#61DAFB" stroke-width="4" stroke-miterlimit="10"/>
</g>
<mask id="mask4_66_12" style="mask-type:luminance" maskUnits="userSpaceOnUse" x="115" y="-2" width="44" height="49">
<path d="M115.15 37.5936L126.463 -1.94011L158.908 7.38291L147.596 46.9167L115.15 37.5936Z" fill="white"/>
</mask>
<g mask="url(#mask4_66_12)">
<path d="M110.485 21.35L143.235 -3.40406L163.546 23.6314L130.796 48.3855L110.485 21.35Z" stroke="#61DAFB" stroke-width="4" stroke-miterlimit="10"/>
</g>
<path d="M147.073 35.6745C156.121 28.8362 158.911 17.2441 153.305 9.78289C147.699 2.32166 135.819 1.81672 126.771 8.65507C117.723 15.4934 114.933 27.0855 120.54 34.5467C126.146 42.008 138.025 42.5129 147.073 35.6745Z" stroke="#61DAFB" stroke-width="4" stroke-miterlimit="10"/>
<path d="M110.485 21.3396L143.225 -3.40402L163.546 23.6419L130.806 48.3855L110.485 21.3396Z" fill="white"/>
<mask id="mask5_66_12" style="mask-type:luminance" maskUnits="userSpaceOnUse" x="110" y="-4" width="54" height="53">
<path d="M110.485 21.3396L143.225 -3.40402L163.546 23.6419L130.806 48.3855L110.485 21.3396Z" fill="white"/>
</mask>
<g mask="url(#mask5_66_12)">
<path d="M147.073 35.6746C156.121 28.8363 158.911 17.2442 153.305 9.78295C147.699 2.32172 135.819 1.81678 126.771 8.65513C117.723 15.4935 114.933 27.0856 120.54 34.5468C126.146 42.008 138.025 42.513 147.073 35.6746Z" fill="white" stroke="#61DAFB" stroke-width="4" stroke-miterlimit="10"/>
</g>
<mask id="mask6_66_12" style="mask-type:luminance" maskUnits="userSpaceOnUse" x="115" y="-2" width="44" height="49">
<path d="M115.15 37.5936L126.463 -1.94011L158.908 7.38291L147.596 46.9167L115.15 37.5936Z" fill="white"/>
</mask>
<g mask="url(#mask6_66_12)">
<path d="M110.485 21.35L143.235 -3.40406L163.546 23.6314L130.796 48.3855L110.485 21.35Z" stroke="#61DAFB" stroke-width="4" stroke-miterlimit="10"/>
</g>
<path d="M97.4647 18.4644L144.221 -16.8733L176.574 26.1858L129.818 61.5234L97.4647 18.4644Z" stroke="#61DAFB" stroke-width="4" stroke-miterlimit="10"/>
</g>
<path d="M147.073 35.6746C156.121 28.8363 158.911 17.2442 153.305 9.78295C147.699 2.32172 135.819 1.81678 126.771 8.65513C117.723 15.4935 114.933 27.0856 120.54 34.5468C126.146 42.008 138.025 42.513 147.073 35.6746Z" stroke="#61DAFB" stroke-width="4" stroke-miterlimit="10"/>
<g clip-path="url(#clip1_66_12)">
<path d="M137.5 24.4043C138.829 24.4043 139.907 23.3278 139.907 22C139.907 20.6721 138.829 19.5957 137.5 19.5957C136.171 19.5957 135.093 20.6721 135.093 22C135.093 23.3278 136.171 24.4043 137.5 24.4043Z" fill="#61DAFB"/>
<path d="M137.5 26.9259C144.632 26.9259 150.413 24.7205 150.413 22C150.413 19.2795 144.632 17.0742 137.5 17.0742C130.368 17.0742 124.587 19.2795 124.587 22C124.587 24.7205 130.368 26.9259 137.5 26.9259Z" stroke="#61DAFB"/>
<path d="M133.23 24.4629C136.796 30.6334 141.598 34.5328 143.957 33.1726C146.315 31.8124 145.336 25.7075 141.77 19.5371C138.204 13.3666 133.402 9.46713 131.043 10.8274C128.685 12.1876 129.664 18.2924 133.23 24.4629Z" stroke="#61DAFB"/>
<path d="M133.23 19.5371C129.664 25.7075 128.685 31.8124 131.043 33.1726C133.402 34.5328 138.204 30.6334 141.77 24.4629C145.336 18.2924 146.315 12.1876 143.957 10.8274C141.598 9.46712 136.796 13.3666 133.23 19.5371Z" stroke="#61DAFB"/>
</g>
</g>
</g>
</g>
<defs>
<clipPath id="clip0_66_12">
<rect width="180" height="67.0445" fill="white"/>
</clipPath>
<clipPath id="clip1_66_12">
<rect width="27" height="24" fill="white" transform="translate(124 10)"/>
</clipPath>
</defs>
</svg>
